<svg width="164" height="134" viewBox="0 0 164 134" fill="none" xmlns="http://www.w3.org/2000/svg">
<path d="M122.225 82.95C122.225 82.95 118.175 65.075 99.775 57.975C85.175 52.35 72.675 51.825 72.675 51.825C72.675 51.825 57.9 45.325 46.8 38.35C28.675 26.975 22.9 37.675 36.9 47.35" stroke="#3B3858" stroke-width="3" stroke-linecap="round" stroke-linejoin="round"/>
<path d="M23.325 54.15C7.77501 44.275 13.75 32.425 31.125 43.75C47.3 54.275 63.3 61.45 63.3 61.45C63.3 61.45 64.95 58.725 67.025 56.925" stroke="#3B3858" stroke-width="3" stroke-linecap="round" stroke-linejoin="round"/>
<path d="M54.25 81.875C54.25 81.875 45.825 80.45 21.825 69.1C2.825 60.1 2.27499 72.6 15.575 81.075C35.475 93.775 57.55 100.425 57.55 100.425" stroke="#3B3858" stroke-width="3" stroke-linecap="round" stroke-linejoin="round"/>
<path d="M56.425 76.825C56.425 76.825 53.9 81.6 53.85 85.75" stroke="#3B3858" stroke-width="3" stroke-linecap="round" stroke-linejoin="round"/>
<path d="M88.65 90.7C88.65 90.7 75.975 85.975 69.05 100.75C69.05 100.75 53.175 99.25 36.55 102.7C19.925 106.15 25.55 118.225 38.45 118.275C51.35 118.325 63.15 119.275 77.1 124.1C89.5 128.375 99.675 125.05 105.825 118" stroke="#3B3858" stroke-width="3" stroke-linecap="round" stroke-linejoin="round"/>
<path d="M121.15 79.65C121.15 79.65 137.375 86.225 153.575 88.975" stroke="#3B3858" stroke-width="3" stroke-linecap="round" stroke-linejoin="round"/>
<path d="M103.725 120.125L133.575 131.825" stroke="#3B3858" stroke-width="3" stroke-linecap="round" stroke-linejoin="round"/>
<path d="M56.775 70.075C56.775 70.075 42.85 66.625 20.5 52.35C1.92499 40.5 -4.30001 53.45 9.44999 62.175C13.725 64.9 20 68.25 20 68.25" stroke="#3B3858" stroke-width="3" stroke-linecap="round" stroke-linejoin="round"/>
<path d="M32.575 95.9C36.1925 95.9 39.125 92.9675 39.125 89.35C39.125 85.7325 36.1925 82.8 32.575 82.8C28.9575 82.8 26.025 85.7325 26.025 89.35C26.025 92.9675 28.9575 95.9 32.575 95.9Z" fill="#64E5F9"/>
<path d="M96.975 109.225C100.951 109.225 104.175 106.001 104.175 102.025C104.175 98.0486 100.951 94.825 96.975 94.825C92.9985 94.825 89.775 98.0486 89.775 102.025C89.775 106.001 92.9985 109.225 96.975 109.225Z" fill="#64E5F9"/>
<path d="M114.9 93.55C120.533 93.55 125.1 88.9833 125.1 83.35C125.1 77.7167 120.533 73.15 114.9 73.15C109.267 73.15 104.7 77.7167 104.7 83.35C104.7 88.9833 109.267 93.55 114.9 93.55Z" fill="#64E5F9"/>
<path d="M61.15 96.125C63.7458 96.125 65.85 94.0207 65.85 91.425C65.85 88.8293 63.7458 86.725 61.15 86.725C58.5543 86.725 56.45 88.8293 56.45 91.425C56.45 94.0207 58.5543 96.125 61.15 96.125Z" fill="#64E5F9"/>
<path d="M24.55 75.675C31.0808 75.675 36.375 70.3808 36.375 63.85C36.375 57.3192 31.0808 52.025 24.55 52.025C18.0192 52.025 12.725 57.3192 12.725 63.85C12.725 70.3808 18.0192 75.675 24.55 75.675Z" fill="#64E5F9"/>
<path d="M76.175 96.85C88.0353 96.85 97.65 87.2353 97.65 75.375C97.65 63.5147 88.0353 53.9 76.175 53.9C64.3147 53.9 54.7 63.5147 54.7 75.375C54.7 87.2353 64.3147 96.85 76.175 96.85Z" fill="#64E5F9"/>
<path d="M50.375 75.675C56.9058 75.675 62.2 70.3808 62.2 63.85C62.2 57.3192 56.9058 52.025 50.375 52.025C43.8442 52.025 38.55 57.3192 38.55 63.85C38.55 70.3808 43.8442 75.675 50.375 75.675Z" fill="#64E5F9"/>
<path d="M98.675 84.9C107.139 84.9 114 78.0388 114 69.575C114 61.1112 107.139 54.25 98.675 54.25C90.2112 54.25 83.35 61.1112 83.35 69.575C83.35 78.0388 90.2112 84.9 98.675 84.9Z" fill="#64E5F9"/>
<path d="M120.3 77.7C125.933 77.7 130.5 73.1333 130.5 67.5C130.5 61.8667 125.933 57.3 120.3 57.3C114.667 57.3 110.1 61.8667 110.1 67.5C110.1 73.1333 114.667 77.7 120.3 77.7Z" fill="#64E5F9"/>
<path d="M154.725 2.175C135.95 8.925 121.5 10.65 121.5 10.65C83.85 2.275 48.95 11.4 36.85 15.825C28.525 18.875 26.625 24.475 29.65 26.725C26.475 27.625 23.925 28.525 21.525 29.55C15.2 32.225 11.35 40.125 20.75 41.2C2.9 46.55 5.4 58.525 22.075 54.975C27.025 53.925 34.475 52.5 34.475 52.5C17.325 57.625 18.375 70.425 35.125 66.55C50.9 62.9 71.575 59.825 83.225 58.25C78.225 61.325 70.025 67.3 64.225 72.525C51.625 83.9 62.575 91.5 73.75 85C84.9 78.5 94.9 73.5 109.375 70.6C120.85 68.3 127.725 61.65 130.325 53.7L162 48.7" fill="white"/>
<path d="M20.775 41.2C11.375 40.125 15.225 32.225 21.55 29.55C35.35 23.725 66.225 19.3 66.225 19.3" stroke="#3B3858" stroke-width="3" stroke-linecap="round" stroke-linejoin="round"/>
<path d="M68.975 45.6C68.975 45.6 54.5 46.525 34.475 52.5C17.325 57.625 18.375 70.425 35.125 66.55C58.125 61.225 92.325 57.075 92.325 57.075" stroke="#3B3858" stroke-width="3" stroke-linecap="round" stroke-linejoin="round"/>
<path d="M83.25 58.225C78.25 61.3 70.05 67.275 64.25 72.5C51.65 83.875 62.6 91.475 73.775 84.975C84.925 78.475 94.925 73.475 109.4 70.575C122.25 68 129.35 59.975 131.1 50.775" stroke="#3B3858" stroke-width="3" stroke-linecap="round" stroke-linejoin="round"/>
<path d="M154.725 2.175C135.95 8.925 121.5 10.65 121.5 10.65C83.85 2.275 48.95 11.4 36.85 15.825C28.525 18.875 26.625 24.475 29.65 26.725" stroke="#3B3858" stroke-width="3" stroke-linecap="round" stroke-linejoin="round"/>
<path d="M130.325 53.7L162 48.7" stroke="#3B3858" stroke-width="3" stroke-linecap="round" stroke-linejoin="round"/>
<path d="M65.85 32.825C65.85 32.825 43.075 35.175 22.3 40.775C3.15001 45.925 5.07501 58.625 22.1 54.975C27.05 53.925 34.5 52.5 34.5 52.5" stroke="#3B3858" stroke-width="3" stroke-linecap="round" stroke-linejoin="round"/>
</svg>
