<svg width="151" height="164" viewBox="0 0 151 164" fill="none" xmlns="http://www.w3.org/2000/svg">
<path d="M99.325 54.825C83.65 64.025 27.875 58.975 34.525 23.975C38.625 2.45001 86.325 -16.075 127.975 34.475C127.975 34.475 146.4 35.725 148.975 51.625C150.625 61.825 144.7 69.075 144.7 69.075C144.7 69.075 153.975 78.65 143.05 82.825" stroke="#3B3858" stroke-width="3" stroke-linecap="round" stroke-linejoin="round"/>
<path d="M129.6 22.025C131.375 27.9 128 34.475 128 34.475L136.725 31.275" stroke="#3B3858" stroke-width="3" stroke-linecap="round" stroke-linejoin="round"/>
<path d="M88.4 96.175L114.675 83.4" stroke="#64E5F9" stroke-width="3" stroke-linecap="round" stroke-linejoin="round"/>
<path d="M97.825 125.4L130.575 120.525" stroke="#64E5F9" stroke-width="3" stroke-linecap="round" stroke-linejoin="round"/>
<path d="M79.5 142.2C79.5 142.2 80.475 155.125 79.825 159.75" stroke="#3B3858" stroke-width="3" stroke-linecap="round" stroke-linejoin="round"/>
<path d="M48.925 52.075C48.925 52.075 42.675 77.5 47.5 94.65" stroke="#3B3858" stroke-width="3" stroke-linecap="round" stroke-linejoin="round"/>
<path d="M62.2 73.475L60.325 82.525" stroke="#3B3858" stroke-width="3" stroke-linecap="round" stroke-linejoin="round"/>
<path d="M38.7 43.7C27.375 47.375 25.225 64.325 40.3 66C40.3 66 36.3 73.5 45.775 73.5" stroke="#3B3858" stroke-width="3" stroke-linecap="round" stroke-linejoin="round"/>
<path d="M122.2 81.725C123.475 78.925 126.05 77 129.025 77C133.275 77 136.7 80.875 136.7 85.65C136.7 89.2 134.8 92.25 132.1 93.575" stroke="#3B3858" stroke-width="3" stroke-linecap="round" stroke-linejoin="round"/>
<path d="M59.025 83.4C53.075 83.65 40.475 100.95 40.475 119.625C40.475 138.3 54.225 144.875 67.95 144.875C85.975 144.875 97.825 125.4 97.825 125.4L88.4 96.175C73.225 93.925 66.1 83.125 59.025 83.4Z" fill="#64E5F9" stroke="#64E5F9" stroke-width="3" stroke-linecap="round" stroke-linejoin="round"/>
<path fill-rule="evenodd" clip-rule="evenodd" d="M58.9822 135.102C62.8533 133.15 63.9154 127.45 61.3544 122.371C58.7935 117.292 53.5792 114.757 49.7081 116.708C45.837 118.66 44.7749 124.36 47.3359 129.439C49.8969 134.519 55.1111 137.054 58.9822 135.102Z" stroke="#3B3858" stroke-width="2.99993" stroke-linecap="round" stroke-linejoin="round"/>
<path d="M91.65 57.625C91.65 57.625 92.575 79.875 106.65 74C106.65 74 105.225 83.425 114.7 83.425" stroke="#3B3858" stroke-width="3" stroke-linecap="round" stroke-linejoin="round"/>
<path d="M115.425 90.825C114.95 89.225 114.7 87.5 114.7 85.7C114.7 76.8 121.1 69.575 129 69.575C136.9 69.575 143.3 76.8 143.3 85.7C143.3 94.6 136.9 101.825 129 101.825C127.25 101.825 125.55 101.475 124 100.8" stroke="#3B3858" stroke-width="3" stroke-linecap="round" stroke-linejoin="round"/>
<path d="M130.7 101.825C130.7 101.825 129.075 133.075 138.5 157.65" stroke="#3B3858" stroke-width="3" stroke-linecap="round" stroke-linejoin="round"/>
<path d="M51.225 81.1C52.9371 81.1 54.325 79.7121 54.325 78C54.325 76.2879 52.9371 74.9 51.225 74.9C49.5129 74.9 48.125 76.2879 48.125 78C48.125 79.7121 49.5129 81.1 51.225 81.1Z" fill="#3B3858"/>
<path d="M83.025 83.65C84.9718 83.65 86.55 82.0718 86.55 80.125C86.55 78.1782 84.9718 76.6 83.025 76.6C81.0782 76.6 79.5 78.1782 79.5 80.125C79.5 82.0718 81.0782 83.65 83.025 83.65Z" fill="#3B3858"/>
<path d="M17.575 131.9C16.25 130.975 14.5 130.7 12.875 131.325C10.275 132.325 8.97501 135.225 9.97501 137.825C10.975 140.425 14.025 141.725 17.55 141.325C25.25 140.475 34.4 133.825 34.4 133.825" stroke="#64E5F9" stroke-width="3" stroke-linecap="round" stroke-linejoin="round"/>
<path d="M5.62501 145.9C2.87501 146.95 1.50001 150.05 2.57501 152.775C3.65001 155.5 6.85001 156.825 10.6 156.475C25 155.15 38.2 140 38.2 140" stroke="#64E5F9" stroke-width="3" stroke-linecap="round" stroke-linejoin="round"/>
<path d="M42.25 157.65C42.625 158.725 42.5 159.95 41.775 160.925C40.625 162.5 38.425 162.85 36.85 161.7C35.275 160.55 34.95 158.25 35.875 155.925C37.875 150.875 44.025 145.9 44.025 145.9" stroke="#64E5F9" stroke-width="3" stroke-linecap="round" stroke-linejoin="round"/>
</svg>
