<svg width="144" height="144" viewBox="0 0 144 144" fill="none" xmlns="http://www.w3.org/2000/svg">
<path d="M142.225 112.4L43.3 127.275C43.3 127.275 12.575 122.5 12.575 61.85V23.625L115.475 16.75" stroke="#3B3858" stroke-width="3" stroke-linecap="round" stroke-linejoin="round"/>
<path d="M142.225 112.4C142.225 112.4 115.5 106.175 115.5 44.675V16.75" stroke="#3B3858" stroke-width="3" stroke-linecap="round" stroke-linejoin="round"/>
<path d="M2.27499 16.75V135.15" stroke="#3B3858" stroke-width="3" stroke-linecap="round" stroke-linejoin="round"/>
<path d="M2.27499 135.15L12.575 142V105.175" stroke="#3B3858" stroke-width="3" stroke-linecap="round" stroke-linejoin="round"/>
<path d="M115.475 16.75L105.2 9.89999L2.27499 16.75L12.575 23.625" stroke="#3B3858" stroke-width="3" stroke-linecap="round" stroke-linejoin="round"/>
<path d="M12.575 142L115.475 131.15V118.2" stroke="#3B3858" stroke-width="3" stroke-linecap="round" stroke-linejoin="round"/>
<path d="M12.575 45.775L115.475 38.925" stroke="#3B3858" stroke-width="3" stroke-linecap="round" stroke-linejoin="round"/>
<path d="M30.7 14.85C31.85 9.2 35.175 5.125 39.1 5.125C43.975 5.125 47.925 11.4 47.925 19.175C47.925 26.95 43.975 33.225 39.1 33.225" stroke="#3B3858" stroke-width="3" stroke-linecap="round" stroke-linejoin="round"/>
<path d="M80.425 11.55C81.6 6 84.9 2 88.775 2C93.65 2 97.6 8.275 97.6 16.05C97.6 23.825 93.65 30.1 88.775 30.1" stroke="#3B3858" stroke-width="3" stroke-linecap="round" stroke-linejoin="round"/>
<path d="M61.95 86.575L58.075 86.925V59.875C58.075 58.925 57.725 58.125 57.05 57.5C56.375 56.9 55.525 56.6 54.6 56.675L53.55 56.75C52.925 56.8 52.325 57 51.7 57.35L44.875 61.425C43.7 62.1 43.075 63.15 43.075 64.45C43.075 65.35 43.4 66.125 44 66.7C44.6 67.25 45.4 67.5 46.3 67.425C46.725 67.4 47.225 67.225 47.825 66.925L51.5 64.85V87.5L46.45 87.95C45.6 88.025 44.85 88.4 44.275 89.05C43.7 89.7 43.425 90.45 43.425 91.3C43.425 92.175 43.75 92.925 44.35 93.5C44.875 93.975 45.55 94.225 46.3 94.225C46.4 94.225 46.5 94.225 46.625 94.2L62.125 92.8C62.975 92.725 63.7 92.375 64.3 91.775C64.9 91.15 65.2 90.4 65.2 89.525C65.2 88.65 64.875 87.9 64.25 87.325C63.625 86.75 62.825 86.5 61.95 86.575Z" fill="#FF6496"/>
<path fill-rule="evenodd" clip-rule="evenodd" d="M93.825 75.3C94.65 75.25 95.425 75.475 96.025 76.025C96.625 76.575 96.95 77.3 96.95 78.15C96.95 78.975 96.625 79.7 96.05 80.3C95.5 80.875 94.775 81.2 93.975 81.275L91.075 81.525V87.3C91.075 88.175 90.75 88.975 90.125 89.625C89.525 90.25 88.75 90.625 87.875 90.7C87.775 90.725 87.65 90.725 87.55 90.725C86.775 90.725 86.075 90.475 85.525 89.975C84.9 89.4 84.55 88.6 84.55 87.7V82.1L70.325 83.325C69.25 83.425 68.3 83.125 67.525 82.45C66.75 81.75 66.325 80.825 66.325 79.75V79.3C66.325 78.375 66.6 77.55 67.125 76.85L82.875 55.775C83.225 55.275 83.7 54.875 84.275 54.55C84.85 54.225 85.45 54.05 86.1 54L87.1 53.925C88.275 53.85 89.225 54.15 89.975 54.85C90.725 55.525 91.1 56.45 91.1 57.55V75.525L93.825 75.3ZM84.525 76.1V63.175L74.3 76.975L84.525 76.1Z" fill="#FF6496"/>
</svg>
