<svg width="159" height="151" viewBox="0 0 159 151" fill="none" xmlns="http://www.w3.org/2000/svg">
<path d="M52.375 36.4C35.875 35.625 29.625 43.375 2.09998 34.325" stroke="#3B3858" stroke-width="3" stroke-linecap="round" stroke-linejoin="round"/>
<path d="M2.09998 101.85C2.09998 101.85 15.25 98.35 29.3 97.625" stroke="#3B3858" stroke-width="3" stroke-linecap="round" stroke-linejoin="round"/>
<path fill-rule="evenodd" clip-rule="evenodd" d="M79.25 148C119.291 148 151.75 115.541 151.75 75.5C151.75 35.4594 119.291 3 79.25 3C39.2094 3 6.75 35.4594 6.75 75.5C6.75 115.541 39.2094 148 79.25 148Z" stroke="#FF6496" stroke-width="6" stroke-linecap="round" stroke-linejoin="round"/>
<path d="M151.15 31.65C151.15 31.65 139.625 39.875 121.125 41.875C104.075 43.725 90.8 22.8 76.525 22.8C62.225 22.8 53.725 38 39.95 45.9C27.45 53.05 30.25 61.275 44.975 60.95C59.675 60.625 69.375 45.975 75.75 46.1C85.775 46.3 115.075 70.525 125.725 82.35C133.4 90.85 123.925 105.525 113.525 94.975C102.85 84.15 92.8 77.4 92.8 77.4" stroke="#3B3858" stroke-width="3" stroke-linecap="round" stroke-linejoin="round"/>
<path d="M83.2 90.6C83.2 90.6 95.675 100.25 100.35 106.175C109.4 117.625 121.75 101.825 111.225 92.65" stroke="#3B3858" stroke-width="3" stroke-linecap="round" stroke-linejoin="round"/>
<path fill-rule="evenodd" clip-rule="evenodd" d="M57 94.15C71.125 81.25 79.9 96.125 68.85 107.425C65.825 110.5 59.875 117.05 56.3 120.5C47.875 128.675 34.675 120.95 42.4 110.4C45.725 105.825 52.85 97.95 57 94.15Z" stroke="#3B3858" stroke-width="3" stroke-linecap="round" stroke-linejoin="round"/>
<path d="M70.425 105.625C73.475 101.575 87.725 101.375 81.775 113.075C78.55 119.425 73.85 122.925 70.425 125.975C64.975 130.825 52.575 130.2 58.65 118.15" stroke="#3B3858" stroke-width="3" stroke-linecap="round" stroke-linejoin="round"/>
<path d="M81.775 113.075C81.775 113.075 95 123.925 100.925 117.6C105.625 112.575 100.375 106.175 100.375 106.175" stroke="#3B3858" stroke-width="3" stroke-linecap="round" stroke-linejoin="round"/>
<path d="M75.75 121.2C75.75 121.2 77.25 127.075 84.25 126.525C91.25 125.975 91.775 118.775 91.775 118.775" stroke="#3B3858" stroke-width="3" stroke-linecap="round" stroke-linejoin="round"/>
<path fill-rule="evenodd" clip-rule="evenodd" d="M28.525 98.85C32.525 92.25 40.9 81.975 48.125 85.625C55.075 89.15 49.4 101.675 43.175 109.35C36.95 117.025 32.225 116.3 29.2 114.3C25.175 111.65 24.75 105.05 28.525 98.85Z" stroke="#3B3858" stroke-width="3" stroke-linecap="round" stroke-linejoin="round"/>
<path d="M128.125 92.3C128.125 92.3 141.2 87.1 157.075 85.975" stroke="#3B3858" stroke-width="3" stroke-linecap="round" stroke-linejoin="round"/>
<path d="M130.525 24.225L27.975 126.775" stroke="#FF6496" stroke-width="6" stroke-linecap="round" stroke-linejoin="round"/>
</svg>
